<?xml version="1.0" encoding="UTF-8"?>
<svg xmlns="http://www.w3.org/2000/svg" viewBox="0 0 2720 4080" width="2720" height="4080">
  <rect x="0" y="0" width="2720" height="4080" fill="#fafbfc"/>
  
<defs>
  <marker id="ah" viewBox="0 0 12 12" refX="10" refY="6" markerWidth="10" markerHeight="10" orient="auto-start-reverse">
    <path d="M 0 0 L 12 6 L 0 12 Z" fill="#212529"/>
  </marker>
</defs>
  <text x="1360" y="62" text-anchor="middle" font-family="Inter, Helvetica, Arial, sans-serif" font-size="34" font-weight="800" fill="#0b2545">GR8 Lending — Customer Journey (Full Ops)</text><text x="1360" y="94" text-anchor="middle" font-family="Inter, Helvetica, Arial, sans-serif" font-size="17" fill="#495057">Intake  →  Pipeline stages  →  Scoring  →  Loandisk  (incl. declines, returns, SO confirmation)</text><rect x="40" y="40" width="320" height="488" rx="14" fill="#ffffff" stroke="#495057" stroke-width="2"/><text x="56" y="68" font-family="Inter, Helvetica, Arial, sans-serif" font-size="18" font-weight="700" fill="#1a1a1a">Legend — Actor</text><rect x="56" y="74" width="26" height="20" rx="4" fill="#a5d8ff" stroke="#1864ab" stroke-width="2"/><text x="92" y="90" font-family="Inter, Helvetica, Arial, sans-serif" font-size="15" fill="#212529">Applicant</text><rect x="56" y="108" width="26" height="20" rx="4" fill="#d0bfff" stroke="#5f3dc4" stroke-width="2"/><text x="92" y="124" font-family="Inter, Helvetica, Arial, sans-serif" font-size="15" fill="#212529">System / Backend</text><rect x="56" y="142" width="26" height="20" rx="4" fill="#eebefa" stroke="#862e9c" stroke-width="2"/><text x="92" y="158" font-family="Inter, Helvetica, Arial, sans-serif" font-size="15" fill="#212529">FinScore API</text><rect x="56" y="176" width="26" height="20" rx="4" fill="#e9ecef" stroke="#343a40" stroke-width="2"/><text x="92" y="192" font-family="Inter, Helvetica, Arial, sans-serif" font-size="15" fill="#212529">ZeptoMail</text><rect x="56" y="210" width="26" height="20" rx="4" fill="#ffe066" stroke="#e67700" stroke-width="2"/><text x="92" y="226" font-family="Inter, Helvetica, Arial, sans-serif" font-size="15" fill="#212529">Stage Transition</text><rect x="56" y="244" width="26" height="20" rx="4" fill="#99e9f2" stroke="#0b7285" stroke-width="2"/><text x="92" y="260" font-family="Inter, Helvetica, Arial, sans-serif" font-size="15" fill="#212529">Verifier</text><rect x="56" y="278" width="26" height="20" rx="4" fill="#ffd8a8" stroke="#d9480f" stroke-width="2"/><text x="92" y="294" font-family="Inter, Helvetica, Arial, sans-serif" font-size="15" fill="#212529">CI Officer</text><rect x="56" y="312" width="26" height="20" rx="4" fill="#b2f2bb" stroke="#2b8a3e" stroke-width="2"/><text x="92" y="328" font-family="Inter, Helvetica, Arial, sans-serif" font-size="15" fill="#212529">Approver</text><rect x="56" y="346" width="26" height="20" rx="4" fill="#fcc2d7" stroke="#a61e4d" stroke-width="2"/><text x="92" y="362" font-family="Inter, Helvetica, Arial, sans-serif" font-size="15" fill="#212529">Encoder</text><rect x="56" y="380" width="26" height="20" rx="4" fill="#ffa8a8" stroke="#c92a2a" stroke-width="2"/><text x="92" y="396" font-family="Inter, Helvetica, Arial, sans-serif" font-size="15" fill="#212529">Loandisk</text><rect x="56" y="414" width="26" height="20" rx="4" fill="#d8f5a2" stroke="#2b8a3e" stroke-width="2"/><text x="92" y="430" font-family="Inter, Helvetica, Arial, sans-serif" font-size="15" fill="#212529">SO Confirmation</text><rect x="56" y="448" width="26" height="20" rx="4" fill="#ffc9c9" stroke="#c92a2a" stroke-width="2"/><text x="92" y="464" font-family="Inter, Helvetica, Arial, sans-serif" font-size="15" fill="#212529">Decline / Reject</text><rect x="56" y="482" width="26" height="20" rx="4" fill="#f8f9fa" stroke="#212529" stroke-width="2"/><text x="92" y="498" font-family="Inter, Helvetica, Arial, sans-serif" font-size="15" fill="#212529">Decision</text><path d="M 1040 195 L 1040 265" fill="none" stroke="#212529" stroke-width="2.5"  marker-end="url(#ah)" /><path d="M 1040 375 L 1040 445" fill="none" stroke="#212529" stroke-width="2.5"  marker-end="url(#ah)" /><path d="M 1040 555 L 1040 600" fill="none" stroke="#212529" stroke-width="2.5"  marker-end="url(#ah)" /><path d="M 1040 760 L 1040 805" fill="none" stroke="#212529" stroke-width="2.5"  marker-end="url(#ah)" /><g><rect x="1000" y="770.5" width="108" height="28" rx="6" fill="#ffffff" stroke="#adb5bd" stroke-width="1"/><text x="1054" y="790.5" text-anchor="middle" font-family="Inter, Helvetica, Arial, sans-serif" font-size="16" fill="#212529">yes</text></g><path d="M 1200 680 L 1520 680" fill="none" stroke="#212529" stroke-width="2.5"  marker-end="url(#ah)" /><g><rect x="1306" y="652" width="108" height="28" rx="6" fill="#ffffff" stroke="#adb5bd" stroke-width="1"/><text x="1360" y="672" text-anchor="middle" font-family="Inter, Helvetica, Arial, sans-serif" font-size="16" fill="#212529">no</text></g><path d="M 1040 915 L 1040 985" fill="none" stroke="#212529" stroke-width="2.5"  marker-end="url(#ah)" /><path d="M 1040 1095 L 1040 1165" fill="none" stroke="#212529" stroke-width="2.5"  marker-end="url(#ah)" /><path d="M 1040 1275 L 1040 1345" fill="none" stroke="#212529" stroke-width="2.5"  marker-end="url(#ah)" /><path d="M 1040 1455 L 1040 1525" fill="none" stroke="#212529" stroke-width="2.5"  marker-end="url(#ah)" /><path d="M 1040 1635 L 1040 1705" fill="none" stroke="#212529" stroke-width="2.5"  marker-end="url(#ah)" /><path d="M 1040 1815 L 1040 1860" fill="none" stroke="#212529" stroke-width="2.5"  marker-end="url(#ah)" /><path d="M 1040 2020 L 1040 2065" fill="none" stroke="#212529" stroke-width="2.5"  marker-end="url(#ah)" /><g><rect x="1000" y="2030.5" width="108" height="28" rx="6" fill="#ffffff" stroke="#adb5bd" stroke-width="1"/><text x="1054" y="2050.5" text-anchor="middle" font-family="Inter, Helvetica, Arial, sans-serif" font-size="16" fill="#212529">approve</text></g><path d="M 1200 1940 L 1520 1940" fill="none" stroke="#212529" stroke-width="2.5"  marker-end="url(#ah)" /><g><rect x="1306" y="1912" width="108" height="28" rx="6" fill="#ffffff" stroke="#adb5bd" stroke-width="1"/><text x="1360" y="1932" text-anchor="middle" font-family="Inter, Helvetica, Arial, sans-serif" font-size="16" fill="#212529">decline</text></g><path d="M 880 1940 L 640 1940 L 640 1580 L 780 1580" fill="none" stroke="#212529" stroke-width="2.5"  marker-end="url(#ah)" /><g><rect x="596" y="1742" width="108" height="28" rx="6" fill="#ffffff" stroke="#adb5bd" stroke-width="1"/><text x="650" y="1762" text-anchor="middle" font-family="Inter, Helvetica, Arial, sans-serif" font-size="16" fill="#212529">return</text></g><path d="M 1040 2175 L 1040 2245" fill="none" stroke="#212529" stroke-width="2.5"  marker-end="url(#ah)" /><path d="M 1040 2355 L 1040 2425" fill="none" stroke="#212529" stroke-width="2.5"  marker-end="url(#ah)" /><path d="M 1040 2535 L 1040 2605" fill="none" stroke="#212529" stroke-width="2.5"  marker-end="url(#ah)" /><path d="M 1040 2715 L 1040 2785" fill="none" stroke="#212529" stroke-width="2.5"  marker-end="url(#ah)" /><path d="M 1300 2660 L 2080 2660" fill="none" stroke="#212529" stroke-width="2.5"  marker-end="url(#ah)" /><path d="M 2340 2715 L 2340 2767" fill="none" stroke="#212529" stroke-width="2.5"  marker-end="url(#ah)" /><path d="M 2340 2877 L 2340 2875" fill="none" stroke="#212529" stroke-width="2.5"  marker-end="url(#ah)" /><path d="M 2080 2930 L 1380 2930 L 1380 2840 L 1300 2840" fill="none" stroke="#495057" stroke-width="2.5" stroke-dasharray="10 6" marker-end="url(#ah)" /><g><rect x="1336" y="2867" width="108" height="28" rx="6" fill="#ffffff" stroke="#adb5bd" stroke-width="1"/><text x="1390" y="2887" text-anchor="middle" font-family="Inter, Helvetica, Arial, sans-serif" font-size="16" fill="#212529">confirm informs approver</text></g><path d="M 1040 2895 L 1040 2940" fill="none" stroke="#212529" stroke-width="2.5"  marker-end="url(#ah)" /><path d="M 1040 3100 L 1040 3145" fill="none" stroke="#212529" stroke-width="2.5"  marker-end="url(#ah)" /><g><rect x="1000" y="3110.5" width="108" height="28" rx="6" fill="#ffffff" stroke="#adb5bd" stroke-width="1"/><text x="1054" y="3130.5" text-anchor="middle" font-family="Inter, Helvetica, Arial, sans-serif" font-size="16" fill="#212529">approve</text></g><path d="M 1200 3020 L 1520 3020" fill="none" stroke="#212529" stroke-width="2.5"  marker-end="url(#ah)" /><g><rect x="1306" y="2992" width="108" height="28" rx="6" fill="#ffffff" stroke="#adb5bd" stroke-width="1"/><text x="1360" y="3012" text-anchor="middle" font-family="Inter, Helvetica, Arial, sans-serif" font-size="16" fill="#212529">decline</text></g><path d="M 880 3020 L 640 3020 L 640 2120 L 780 2120" fill="none" stroke="#212529" stroke-width="2.5"  marker-end="url(#ah)" /><g><rect x="596" y="2552" width="108" height="28" rx="6" fill="#ffffff" stroke="#adb5bd" stroke-width="1"/><text x="650" y="2572" text-anchor="middle" font-family="Inter, Helvetica, Arial, sans-serif" font-size="16" fill="#212529">return</text></g><path d="M 1040 3255 L 1040 3325" fill="none" stroke="#212529" stroke-width="2.5"  marker-end="url(#ah)" /><path d="M 1040 3435 L 1040 3505" fill="none" stroke="#212529" stroke-width="2.5"  marker-end="url(#ah)" /><path d="M 1040 3615 L 1040 3685" fill="none" stroke="#212529" stroke-width="2.5"  marker-end="url(#ah)" /><path d="M 1040 3795 L 1040 3865" fill="none" stroke="#212529" stroke-width="2.5"  marker-end="url(#ah)" /><path d="M 794 85 H 1286 Q 1300 85 1300 99 V 181 Q 1300 195 1286 195 H 794 Q 780 195 780 181 V 99 Q 780 85 794 85 Z" fill="#a5d8ff" stroke="#1864ab" stroke-width="3"/><text x="1040" y="134" text-anchor="middle" dominant-baseline="middle" font-family="Inter, Helvetica, Arial, sans-serif" font-size="22" font-weight="700" fill="#1a1a1a">Applicant fills form</text><text x="1040" y="162" text-anchor="middle" dominant-baseline="middle" font-family="Inter, Helvetica, Arial, sans-serif" font-size="15" fill="#343a40">Personal / SME / AKAP / Group / SBL</text><path d="M 794 265 H 1286 Q 1300 265 1300 279 V 361 Q 1300 375 1286 375 H 794 Q 780 375 780 361 V 279 Q 780 265 794 265 Z" fill="#a5d8ff" stroke="#1864ab" stroke-width="3"/><text x="1040" y="314" text-anchor="middle" dominant-baseline="middle" font-family="Inter, Helvetica, Arial, sans-serif" font-size="22" font-weight="700" fill="#1a1a1a">POST /api/application/submit</text><text x="1040" y="342" text-anchor="middle" dominant-baseline="middle" font-family="Inter, Helvetica, Arial, sans-serif" font-size="15" fill="#343a40">(/submit-group for Group &amp; SBL)</text><path d="M 794 445 H 1286 Q 1300 445 1300 459 V 541 Q 1300 555 1286 555 H 794 Q 780 555 780 541 V 459 Q 780 445 794 445 Z" fill="#d0bfff" stroke="#5f3dc4" stroke-width="3"/><text x="1040" y="494" text-anchor="middle" dominant-baseline="middle" font-family="Inter, Helvetica, Arial, sans-serif" font-size="22" font-weight="700" fill="#1a1a1a">Pre-qualification checks</text><text x="1040" y="522" text-anchor="middle" dominant-baseline="middle" font-family="Inter, Helvetica, Arial, sans-serif" font-size="15" fill="#343a40">Age 21-65  ·  income  ·  amount limits  ·  mobile fmt</text><path d="M 1040 600 L 1200 680 L 1040 760 L 880 680 Z" fill="#f8f9fa" stroke="#212529" stroke-width="3"/><text x="1040" y="686" text-anchor="middle" dominant-baseline="middle" font-family="Inter, Helvetica, Arial, sans-serif" font-size="20" font-weight="700" fill="#1a1a1a">Pre-qual pass?</text><path d="M 794 805 H 1286 Q 1300 805 1300 819 V 901 Q 1300 915 1286 915 H 794 Q 780 915 780 901 V 819 Q 780 805 794 805 Z" fill="#eebefa" stroke="#862e9c" stroke-width="3"/><text x="1040" y="854" text-anchor="middle" dominant-baseline="middle" font-family="Inter, Helvetica, Arial, sans-serif" font-size="22" font-weight="700" fill="#1a1a1a">FinScore API</text><text x="1040" y="882" text-anchor="middle" dominant-baseline="middle" font-family="Inter, Helvetica, Arial, sans-serif" font-size="15" fill="#343a40">Telco detect (GL1 / Q1 / DT1)  →  raw 300-600</text><path d="M 794 985 H 1286 Q 1300 985 1300 999 V 1081 Q 1300 1095 1286 1095 H 794 Q 780 1095 780 1081 V 999 Q 780 985 794 985 Z" fill="#d0bfff" stroke="#5f3dc4" stroke-width="3"/><text x="1040" y="1034" text-anchor="middle" dominant-baseline="middle" font-family="Inter, Helvetica, Arial, sans-serif" font-size="22" font-weight="700" fill="#1a1a1a">Compress + upload files</text><text x="1040" y="1062" text-anchor="middle" dominant-baseline="middle" font-family="Inter, Helvetica, Arial, sans-serif" font-size="15" fill="#343a40">sharp  →  Supabase application-files bucket</text><path d="M 794 1165 H 1286 Q 1300 1165 1300 1179 V 1261 Q 1300 1275 1286 1275 H 794 Q 780 1275 780 1261 V 1179 Q 780 1165 794 1165 Z" fill="#d0bfff" stroke="#5f3dc4" stroke-width="3"/><text x="1040" y="1214" text-anchor="middle" dominant-baseline="middle" font-family="Inter, Helvetica, Arial, sans-serif" font-size="22" font-weight="700" fill="#1a1a1a">Insert applications row</text><text x="1040" y="1242" text-anchor="middle" dominant-baseline="middle" font-family="Inter, Helvetica, Arial, sans-serif" font-size="15" fill="#343a40">status = pending  ·  stage = leads  ·  ref = GR8-{ts}</text><path d="M 794 1345 H 1286 Q 1300 1345 1300 1359 V 1441 Q 1300 1455 1286 1455 H 794 Q 780 1455 780 1441 V 1359 Q 780 1345 794 1345 Z" fill="#e9ecef" stroke="#343a40" stroke-width="3"/><text x="1040" y="1394" text-anchor="middle" dominant-baseline="middle" font-family="Inter, Helvetica, Arial, sans-serif" font-size="22" font-weight="700" fill="#1a1a1a">ZeptoMail: submission confirm</text><text x="1040" y="1422" text-anchor="middle" dominant-baseline="middle" font-family="Inter, Helvetica, Arial, sans-serif" font-size="15" fill="#343a40">Applicant  +  internal notify</text><path d="M 794 1525 H 1286 Q 1300 1525 1300 1539 V 1621 Q 1300 1635 1286 1635 H 794 Q 780 1635 780 1621 V 1539 Q 780 1525 794 1525 Z" fill="#ffe066" stroke="#e67700" stroke-width="3"/><text x="1040" y="1574" text-anchor="middle" dominant-baseline="middle" font-family="Inter, Helvetica, Arial, sans-serif" font-size="22" font-weight="700" fill="#1a1a1a">Stage: leads  →  verifier</text><text x="1040" y="1602" text-anchor="middle" dominant-baseline="middle" font-family="Inter, Helvetica, Arial, sans-serif" font-size="15" fill="#343a40">Auto-advance on submit</text><path d="M 794 1705 H 1286 Q 1300 1705 1300 1719 V 1801 Q 1300 1815 1286 1815 H 794 Q 780 1815 780 1801 V 1719 Q 780 1705 794 1705 Z" fill="#99e9f2" stroke="#0b7285" stroke-width="3"/><text x="1040" y="1754" text-anchor="middle" dominant-baseline="middle" font-family="Inter, Helvetica, Arial, sans-serif" font-size="22" font-weight="700" fill="#1a1a1a">Verifier reviews documents</text><text x="1040" y="1782" text-anchor="middle" dominant-baseline="middle" font-family="Inter, Helvetica, Arial, sans-serif" font-size="15" fill="#343a40">PATCH /api/pipeline/:id/transition</text><path d="M 1040 1860 L 1200 1940 L 1040 2020 L 880 1940 Z" fill="#f8f9fa" stroke="#212529" stroke-width="3"/><text x="1040" y="1946" text-anchor="middle" dominant-baseline="middle" font-family="Inter, Helvetica, Arial, sans-serif" font-size="20" font-weight="700" fill="#1a1a1a">Verifier decision?</text><path d="M 794 2065 H 1286 Q 1300 2065 1300 2079 V 2161 Q 1300 2175 1286 2175 H 794 Q 780 2175 780 2161 V 2079 Q 780 2065 794 2065 Z" fill="#ffe066" stroke="#e67700" stroke-width="3"/><text x="1040" y="2114" text-anchor="middle" dominant-baseline="middle" font-family="Inter, Helvetica, Arial, sans-serif" font-size="22" font-weight="700" fill="#1a1a1a">Stage: verifier  →  ci_officer</text><text x="1040" y="2142" text-anchor="middle" dominant-baseline="middle" font-family="Inter, Helvetica, Arial, sans-serif" font-size="15" fill="#343a40">Transition email fires</text><path d="M 794 2245 H 1286 Q 1300 2245 1300 2259 V 2341 Q 1300 2355 1286 2355 H 794 Q 780 2355 780 2341 V 2259 Q 780 2245 794 2245 Z" fill="#ffd8a8" stroke="#d9480f" stroke-width="3"/><text x="1040" y="2294" text-anchor="middle" dominant-baseline="middle" font-family="Inter, Helvetica, Arial, sans-serif" font-size="22" font-weight="700" fill="#1a1a1a">CI Officer interview</text><text x="1040" y="2322" text-anchor="middle" dominant-baseline="middle" font-family="Inter, Helvetica, Arial, sans-serif" font-size="15" fill="#343a40">Score 0-50  ·  PATCH /api/ci/.../ci-score</text><path d="M 794 2425 H 1286 Q 1300 2425 1300 2439 V 2521 Q 1300 2535 1286 2535 H 794 Q 780 2535 780 2521 V 2439 Q 780 2425 794 2425 Z" fill="#d0bfff" stroke="#5f3dc4" stroke-width="3"/><text x="1040" y="2474" text-anchor="middle" dominant-baseline="middle" font-family="Inter, Helvetica, Arial, sans-serif" font-size="22" font-weight="700" fill="#1a1a1a">Auto-advance  →  approver</text><text x="1040" y="2502" text-anchor="middle" dominant-baseline="middle" font-family="Inter, Helvetica, Arial, sans-serif" font-size="15" fill="#343a40">CI normalized = (raw / 50) * 100</text><path d="M 794 2605 H 1286 Q 1300 2605 1300 2619 V 2701 Q 1300 2715 1286 2715 H 794 Q 780 2715 780 2701 V 2619 Q 780 2605 794 2605 Z" fill="#e9ecef" stroke="#343a40" stroke-width="3"/><text x="1040" y="2654" text-anchor="middle" dominant-baseline="middle" font-family="Inter, Helvetica, Arial, sans-serif" font-size="22" font-weight="700" fill="#1a1a1a">ZeptoMail: SO confirmation</text><text x="1040" y="2682" text-anchor="middle" dominant-baseline="middle" font-family="Inter, Helvetica, Arial, sans-serif" font-size="15" fill="#343a40">Tokenized link sent to applicant / SO</text><path d="M 794 2785 H 1286 Q 1300 2785 1300 2799 V 2881 Q 1300 2895 1286 2895 H 794 Q 780 2895 780 2881 V 2799 Q 780 2785 794 2785 Z" fill="#b2f2bb" stroke="#2b8a3e" stroke-width="3"/><text x="1040" y="2834" text-anchor="middle" dominant-baseline="middle" font-family="Inter, Helvetica, Arial, sans-serif" font-size="22" font-weight="700" fill="#1a1a1a">Approver reviews</text><text x="1040" y="2862" text-anchor="middle" dominant-baseline="middle" font-family="Inter, Helvetica, Arial, sans-serif" font-size="15" fill="#343a40">final = fin*0.5 + ci*0.5 + reapp bonus  (cap 100)</text><path d="M 1040 2940 L 1200 3020 L 1040 3100 L 880 3020 Z" fill="#f8f9fa" stroke="#212529" stroke-width="3"/><text x="1040" y="3026" text-anchor="middle" dominant-baseline="middle" font-family="Inter, Helvetica, Arial, sans-serif" font-size="20" font-weight="700" fill="#1a1a1a">Approver decision?</text><path d="M 794 3145 H 1286 Q 1300 3145 1300 3159 V 3241 Q 1300 3255 1286 3255 H 794 Q 780 3255 780 3241 V 3159 Q 780 3145 794 3145 Z" fill="#ffa8a8" stroke="#c92a2a" stroke-width="3"/><text x="1040" y="3194" text-anchor="middle" dominant-baseline="middle" font-family="Inter, Helvetica, Arial, sans-serif" font-size="22" font-weight="700" fill="#1a1a1a">Loandisk: create borrower</text><text x="1040" y="3222" text-anchor="middle" dominant-baseline="middle" font-family="Inter, Helvetica, Arial, sans-serif" font-size="15" fill="#343a40">Transfer files via S3 presigned URLs</text><path d="M 794 3325 H 1286 Q 1300 3325 1300 3339 V 3421 Q 1300 3435 1286 3435 H 794 Q 780 3435 780 3421 V 3339 Q 780 3325 794 3325 Z" fill="#ffe066" stroke="#e67700" stroke-width="3"/><text x="1040" y="3386" text-anchor="middle" dominant-baseline="middle" font-family="Inter, Helvetica, Arial, sans-serif" font-size="22" font-weight="700" fill="#1a1a1a">Stage: approver  →  encoder</text><path d="M 794 3505 H 1286 Q 1300 3505 1300 3519 V 3601 Q 1300 3615 1286 3615 H 794 Q 780 3615 780 3601 V 3519 Q 780 3505 794 3505 Z" fill="#fcc2d7" stroke="#a61e4d" stroke-width="3"/><text x="1040" y="3566" text-anchor="middle" dominant-baseline="middle" font-family="Inter, Helvetica, Arial, sans-serif" font-size="22" font-weight="700" fill="#1a1a1a">Encoder finalizes loan record</text><path d="M 794 3685 H 1286 Q 1300 3685 1300 3699 V 3781 Q 1300 3795 1286 3795 H 794 Q 780 3795 780 3781 V 3699 Q 780 3685 794 3685 Z" fill="#ffe066" stroke="#e67700" stroke-width="3"/><text x="1040" y="3734" text-anchor="middle" dominant-baseline="middle" font-family="Inter, Helvetica, Arial, sans-serif" font-size="22" font-weight="700" fill="#1a1a1a">Stage: encoder  →  released</text><text x="1040" y="3762" text-anchor="middle" dominant-baseline="middle" font-family="Inter, Helvetica, Arial, sans-serif" font-size="15" fill="#343a40">Loan live in Loandisk</text><path d="M 794 3865 H 1286 Q 1300 3865 1300 3879 V 3961 Q 1300 3975 1286 3975 H 794 Q 780 3975 780 3961 V 3879 Q 780 3865 794 3865 Z" fill="#e9ecef" stroke="#343a40" stroke-width="3"/><text x="1040" y="3926" text-anchor="middle" dominant-baseline="middle" font-family="Inter, Helvetica, Arial, sans-serif" font-size="22" font-weight="700" fill="#1a1a1a">ZeptoMail: release notification</text><path d="M 1534 625 H 2026 Q 2040 625 2040 639 V 721 Q 2040 735 2026 735 H 1534 Q 1520 735 1520 721 V 639 Q 1520 625 1534 625 Z" fill="#ffc9c9" stroke="#c92a2a" stroke-width="3"/><text x="1780" y="674" text-anchor="middle" dominant-baseline="middle" font-family="Inter, Helvetica, Arial, sans-serif" font-size="22" font-weight="700" fill="#1a1a1a">HTTP 400 response</text><text x="1780" y="702" text-anchor="middle" dominant-baseline="middle" font-family="Inter, Helvetica, Arial, sans-serif" font-size="15" fill="#343a40">Pre-qual failure reason returned</text><path d="M 1534 1885 H 2026 Q 2040 1885 2040 1899 V 1981 Q 2040 1995 2026 1995 H 1534 Q 1520 1995 1520 1981 V 1899 Q 1520 1885 1534 1885 Z" fill="#ffc9c9" stroke="#c92a2a" stroke-width="3"/><text x="1780" y="1934" text-anchor="middle" dominant-baseline="middle" font-family="Inter, Helvetica, Arial, sans-serif" font-size="22" font-weight="700" fill="#1a1a1a">Stage: declined (verifier)</text><text x="1780" y="1962" text-anchor="middle" dominant-baseline="middle" font-family="Inter, Helvetica, Arial, sans-serif" font-size="15" fill="#343a40">Decline email sent</text><path d="M 1534 2965 H 2026 Q 2040 2965 2040 2979 V 3061 Q 2040 3075 2026 3075 H 1534 Q 1520 3075 1520 3061 V 2979 Q 1520 2965 1534 2965 Z" fill="#ffc9c9" stroke="#c92a2a" stroke-width="3"/><text x="1780" y="3014" text-anchor="middle" dominant-baseline="middle" font-family="Inter, Helvetica, Arial, sans-serif" font-size="22" font-weight="700" fill="#1a1a1a">Stage: declined (approver)</text><text x="1780" y="3042" text-anchor="middle" dominant-baseline="middle" font-family="Inter, Helvetica, Arial, sans-serif" font-size="15" fill="#343a40">tier &lt; 70  →  declined</text><path d="M 2094 2605 H 2586 Q 2600 2605 2600 2619 V 2701 Q 2600 2715 2586 2715 H 2094 Q 2080 2715 2080 2701 V 2619 Q 2080 2605 2094 2605 Z" fill="#d8f5a2" stroke="#2b8a3e" stroke-width="3"/><text x="2340" y="2654" text-anchor="middle" dominant-baseline="middle" font-family="Inter, Helvetica, Arial, sans-serif" font-size="22" font-weight="700" fill="#1a1a1a">SO / Applicant clicks link</text><text x="2340" y="2682" text-anchor="middle" dominant-baseline="middle" font-family="Inter, Helvetica, Arial, sans-serif" font-size="15" fill="#343a40">Token in email body</text><path d="M 2094 2767 H 2586 Q 2600 2767 2600 2781 V 2863 Q 2600 2877 2586 2877 H 2094 Q 2080 2877 2080 2863 V 2781 Q 2080 2767 2094 2767 Z" fill="#d8f5a2" stroke="#2b8a3e" stroke-width="3"/><text x="2340" y="2816" text-anchor="middle" dominant-baseline="middle" font-family="Inter, Helvetica, Arial, sans-serif" font-size="22" font-weight="700" fill="#1a1a1a">GET /api/confirm/:token</text><text x="2340" y="2844" text-anchor="middle" dominant-baseline="middle" font-family="Inter, Helvetica, Arial, sans-serif" font-size="15" fill="#343a40">Validate signature + expiry</text><path d="M 2094 2875 H 2586 Q 2600 2875 2600 2889 V 2971 Q 2600 2985 2586 2985 H 2094 Q 2080 2985 2080 2971 V 2889 Q 2080 2875 2094 2875 Z" fill="#d8f5a2" stroke="#2b8a3e" stroke-width="3"/><text x="2340" y="2924" text-anchor="middle" dominant-baseline="middle" font-family="Inter, Helvetica, Arial, sans-serif" font-size="22" font-weight="700" fill="#1a1a1a">Stamp so_confirmation_sent_at</text><text x="2340" y="2952" text-anchor="middle" dominant-baseline="middle" font-family="Inter, Helvetica, Arial, sans-serif" font-size="15" fill="#343a40">so_decision persists on approver</text>
</svg>